<svg width="73" height="73" viewBox="0 0 73 73" fill="none" xmlns="http://www.w3.org/2000/svg">
<path d="M18.1532 9.46058V18.5372H9.07661V9.46058H18.1532ZM4.53831 4.92227V23.0755H22.6915V4.92227H4.53831ZM40.8448 16.268V25.3447H31.7682V16.268H40.8448ZM27.2298 11.7297V29.883H45.3831V11.7297H27.2298ZM18.1532 36.6904V45.767H9.07661V36.6904H18.1532ZM4.53831 32.1521V50.3053H22.6915V32.1521H4.53831Z" fill="white"/>
<path d="M49.9214 23.0755V36.6904H36.3065V50.3054H22.6915V68.4586H68.0746V23.0755H49.9214ZM40.8448 41.2287H49.9214V50.3054H40.8448V41.2287ZM36.3065 63.9203H27.2298V54.8437H36.3065V63.9203ZM49.9214 63.9203H40.8448V54.8437H49.9214V63.9203ZM63.5363 63.9203H54.4597V54.8437H63.5363V63.9203ZM63.5363 50.3054H54.4597V41.2287H63.5363V50.3054ZM54.4597 36.6904V27.6138H63.5363V36.6904H54.4597Z" fill="white"/>
</svg>
