<svg width="73" height="54" viewBox="0 0 73 54" fill="none" xmlns="http://www.w3.org/2000/svg">
<path fill-rule="evenodd" clip-rule="evenodd" d="M15.4028 20.4712C17.7371 20.4712 19.9758 19.6449 21.6264 18.1742C23.277 16.7035 24.2043 14.7088 24.2043 12.6289C24.2043 10.549 23.277 8.55428 21.6264 7.08356C19.9758 5.61285 17.7371 4.78662 15.4028 4.78662C13.0684 4.78662 10.8297 5.61285 9.17911 7.08356C7.5285 8.55428 6.60119 10.549 6.60119 12.6289C6.60119 14.7088 7.5285 16.7035 9.17911 18.1742C10.8297 19.6449 13.0684 20.4712 15.4028 20.4712ZM15.4028 24.3923C17.1365 24.3923 18.8533 24.088 20.4551 23.4969C22.0569 22.9057 23.5123 22.0392 24.7382 20.9469C25.9642 19.8545 26.9367 18.5578 27.6001 17.1306C28.2636 15.7034 28.6051 14.1737 28.6051 12.6289C28.6051 11.0841 28.2636 9.55443 27.6001 8.12723C26.9367 6.70002 25.9642 5.40324 24.7382 4.3109C23.5123 3.21857 22.0569 2.35208 20.4551 1.76092C18.8533 1.16975 17.1365 0.865478 15.4028 0.865479C11.9013 0.865479 8.54321 2.10483 6.06729 4.3109C3.59137 6.51697 2.20041 9.50904 2.20041 12.6289C2.20041 15.7487 3.59137 18.7408 6.06729 20.9469C8.54321 23.1529 11.9013 24.3923 15.4028 24.3923Z" fill="white"/>
<path fill-rule="evenodd" clip-rule="evenodd" d="M10.3594 20.0633C10.5644 20.2454 10.7269 20.4617 10.8379 20.6999C10.9488 20.9381 11.0059 21.1935 11.0059 21.4514C11.0059 21.7092 10.9488 21.9646 10.8379 22.2028C10.7269 22.441 10.5644 22.6573 10.3594 22.8394L8.87198 24.1609C6.00942 26.7121 4.40116 30.1719 4.40078 33.7794V41.057C4.40078 41.577 4.16896 42.0757 3.7563 42.4434C3.34365 42.8111 2.78397 43.0176 2.20039 43.0176C1.61681 43.0176 1.05713 42.8111 0.64448 42.4434C0.231826 42.0757 0 41.577 0 41.057V33.7794C0.000623851 29.132 2.07271 24.6751 5.76063 21.3886L7.24369 20.0633C7.44809 19.8807 7.6909 19.7358 7.95823 19.637C8.22555 19.5382 8.51214 19.4873 8.80157 19.4873C9.09099 19.4873 9.37758 19.5382 9.6449 19.637C9.91223 19.7358 10.155 19.8807 10.3594 20.0633ZM62.2535 18.8869C62.0486 19.0691 61.886 19.2854 61.7751 19.5236C61.6641 19.7618 61.607 20.0171 61.607 20.275C61.607 20.5329 61.6641 20.7882 61.7751 21.0264C61.886 21.2646 62.0486 21.481 62.2535 21.6631L63.7409 22.9845C66.6035 25.5358 68.2118 28.9955 68.2121 32.6031V41.057C68.2121 41.577 68.444 42.0757 68.8566 42.4434C69.2693 42.8111 69.8289 43.0176 70.4125 43.0176C70.9961 43.0176 71.5558 42.8111 71.9684 42.4434C72.3811 42.0757 72.6129 41.577 72.6129 41.057V32.6031C72.6123 27.9557 70.5402 23.4987 66.8523 20.2123L65.3692 18.8869C65.1648 18.7044 64.922 18.5595 64.6547 18.4607C64.3874 18.3618 64.1008 18.3109 63.8114 18.3109C63.5219 18.3109 63.2353 18.3618 62.968 18.4607C62.7007 18.5595 62.4579 18.7044 62.2535 18.8869Z" fill="white"/>
<path fill-rule="evenodd" clip-rule="evenodd" d="M55.0098 20.4712C52.6755 20.4712 50.4368 19.6449 48.7861 18.1742C47.1355 16.7035 46.2082 14.7088 46.2082 12.6289C46.2082 10.549 47.1355 8.55428 48.7861 7.08356C50.4368 5.61285 52.6755 4.78662 55.0098 4.78662C57.3441 4.78662 59.5828 5.61285 61.2334 7.08356C62.8841 8.55428 63.8114 10.549 63.8114 12.6289C63.8114 14.7088 62.8841 16.7035 61.2334 18.1742C59.5828 19.6449 57.3441 20.4712 55.0098 20.4712ZM55.0098 24.3923C53.276 24.3923 51.5593 24.088 49.9575 23.4969C48.3557 22.9057 46.9003 22.0392 45.6743 20.9469C44.4484 19.8545 43.4759 18.5578 42.8124 17.1306C42.1489 15.7033 41.8074 14.1737 41.8074 12.6289C41.8074 11.0841 42.1489 9.55443 42.8124 8.12723C43.4759 6.70002 44.4484 5.40324 45.6743 4.3109C46.9003 3.21857 48.3557 2.35208 49.9575 1.76092C51.5593 1.16975 53.276 0.865478 55.0098 0.865479C58.5113 0.865479 61.8693 2.10483 64.3453 4.3109C66.8212 6.51697 68.2121 9.50904 68.2121 12.6289C68.2121 15.7487 66.8212 18.7408 64.3453 20.9469C61.8693 23.1529 58.5113 24.3923 55.0098 24.3923ZM35.2063 37.136C32.2884 37.136 29.49 38.1688 27.4267 40.0072C25.3634 41.8456 24.2043 44.339 24.2043 46.9388V52.0363C24.2043 52.5563 23.9725 53.055 23.5598 53.4226C23.1472 53.7903 22.5875 53.9969 22.0039 53.9969C21.4203 53.9969 20.8607 53.7903 20.448 53.4226C20.0354 53.055 19.8035 52.5563 19.8035 52.0363V46.9388C19.8035 43.299 21.4263 39.8083 24.3149 37.2345C27.2035 34.6608 31.1212 33.2149 35.2063 33.2149C39.2913 33.2149 43.2091 34.6608 46.0977 37.2345C48.9862 39.8083 50.609 43.299 50.609 46.9388V52.0363C50.609 52.5563 50.3772 53.055 49.9645 53.4226C49.5519 53.7903 48.9922 53.9969 48.4086 53.9969C47.825 53.9969 47.2654 53.7903 46.8527 53.4226C46.4401 53.055 46.2082 52.5563 46.2082 52.0363V46.9388C46.2082 45.6515 45.9237 44.3768 45.3708 43.1875C44.8179 41.9981 44.0075 40.9175 42.9858 40.0072C41.9642 39.0969 40.7514 38.3748 39.4165 37.8822C38.0817 37.3896 36.6511 37.136 35.2063 37.136Z" fill="white"/>
<path fill-rule="evenodd" clip-rule="evenodd" d="M35.2063 31.2543C37.5406 31.2543 39.7793 30.4281 41.4299 28.9573C43.0805 27.4866 44.0079 25.4919 44.0079 23.412C44.0079 21.3321 43.0805 19.3374 41.4299 17.8667C39.7793 16.396 37.5406 15.5697 35.2063 15.5697C32.872 15.5697 30.6333 16.396 28.9826 17.8667C27.332 19.3374 26.4047 21.3321 26.4047 23.412C26.4047 25.4919 27.332 27.4866 28.9826 28.9573C30.6333 30.4281 32.872 31.2543 35.2063 31.2543ZM35.2063 35.1754C38.7078 35.1754 42.0658 33.9361 44.5418 31.73C47.0177 29.5239 48.4086 26.5319 48.4086 23.412C48.4086 20.2922 47.0177 17.3001 44.5418 15.094C42.0658 12.888 38.7078 11.6486 35.2063 11.6486C31.7048 11.6486 28.3467 12.888 25.8708 15.094C23.3949 17.3001 22.0039 20.2922 22.0039 23.412C22.0039 26.5319 23.3949 29.5239 25.8708 31.73C28.3467 33.9361 31.7048 35.1754 35.2063 35.1754Z" fill="white"/>
</svg>
