<svg width="74" height="73" viewBox="0 0 74 73" fill="none" xmlns="http://www.w3.org/2000/svg">
<path d="M58.2059 60.521H15.8484C14.2436 60.521 12.7044 59.8835 11.5697 58.7487C10.4349 57.6139 9.79733 56.0748 9.79733 54.4699V27.2401C9.79733 25.6353 10.4349 24.0961 11.5697 22.9613C12.7044 21.8265 14.2436 21.189 15.8484 21.189H58.2059C59.8108 21.189 61.3499 21.8265 62.4847 22.9613C63.6195 24.0961 64.257 25.6353 64.257 27.2401V54.4699C64.257 56.0748 63.6195 57.6139 62.4847 58.7487C61.3499 59.8835 59.8108 60.521 58.2059 60.521Z" stroke="white" stroke-width="1.5"/>
<path d="M50.6421 42.3678C50.2409 42.3678 49.8561 42.2084 49.5724 41.9247C49.2887 41.641 49.1293 41.2562 49.1293 40.855C49.1293 40.4538 49.2887 40.069 49.5724 39.7853C49.8561 39.5016 50.2409 39.3423 50.6421 39.3423C51.0433 39.3423 51.4281 39.5016 51.7118 39.7853C51.9955 40.069 52.1549 40.4538 52.1549 40.855C52.1549 41.2562 51.9955 41.641 51.7118 41.9247C51.4281 42.2084 51.0433 42.3678 50.6421 42.3678Z" fill="black" stroke="white" stroke-width="1.5" stroke-linecap="round" stroke-linejoin="round"/>
<path d="M55.1804 21.189V16.9624C55.1802 16.035 54.9668 15.1202 54.5567 14.2884C54.1467 13.4567 53.551 12.7303 52.8156 12.1654C52.0802 11.6005 51.2248 11.2121 50.3155 11.0304C49.4062 10.8486 48.4672 10.8782 47.5712 11.117L14.2903 19.9909C13.0015 20.3343 11.8624 21.0939 11.0499 22.1515C10.2374 23.2092 9.79704 24.5056 9.79733 25.8393V27.2401" stroke="white" stroke-width="1.5"/>
</svg>
