<svg width="51" height="63" viewBox="0 0 51 63" fill="none" xmlns="http://www.w3.org/2000/svg">
<path d="M4.34734 37.3167C2.07715 33.599 0.880237 29.3255 0.889149 24.9695C0.889149 11.7358 11.7266 1.01025 25.0935 1.01025C38.4603 1.01025 49.2978 11.7358 49.2978 24.9695C49.3067 29.3255 48.1098 33.599 45.8396 37.3167M34.1701 52.4444L33.7767 54.4019C33.3532 56.541 33.1384 57.609 32.6573 58.4562C31.916 59.7618 30.7158 60.7453 29.2899 61.2154C28.3671 61.521 27.2718 61.521 25.0935 61.521C22.9151 61.521 21.8198 61.521 20.897 61.2185C19.4706 60.7476 18.2703 59.763 17.5296 58.4562C17.0485 57.609 16.8337 56.541 16.4102 54.4019L16.0168 52.4444M11.1245 46.6898C10.8462 45.8548 10.707 45.4342 10.7221 45.0954C10.7393 44.745 10.8575 44.4071 11.0626 44.1225C11.2678 43.8379 11.5509 43.6189 11.8779 43.4918C12.1926 43.3678 12.6343 43.3678 13.5117 43.3678H36.6752C37.5556 43.3678 37.9943 43.3678 38.309 43.4888C38.6364 43.6161 38.9199 43.8356 39.1251 44.1207C39.3302 44.4059 39.4482 44.7445 39.4648 45.0954C39.4799 45.4342 39.3407 45.8518 39.0624 46.6898C38.548 48.2359 38.2909 49.0104 37.8945 49.6367C37.0655 50.9456 35.766 51.8866 34.2639 52.2659C33.5438 52.4444 32.7329 52.4444 31.1082 52.4444H19.0787C17.454 52.4444 16.6401 52.4444 15.923 52.2629C14.4214 51.8843 13.122 50.9444 12.2924 49.6367C11.8961 49.0104 11.6389 48.2359 11.1245 46.6898Z" stroke="white" stroke-width="1.5" stroke-linecap="round" stroke-linejoin="round"/>
<path d="M13.7477 24.4581L20.5551 31.2656V43.3677M36.4392 24.4581L29.6318 31.2656V43.3677M13.7477 26.7273C14.3495 26.7273 14.9267 26.4882 15.3522 26.0627C15.7778 25.6371 16.0168 25.0599 16.0168 24.4581C16.0168 23.8563 15.7778 23.2791 15.3522 22.8536C14.9267 22.428 14.3495 22.189 13.7477 22.189C13.1459 22.189 12.5687 22.428 12.1432 22.8536C11.7176 23.2791 11.4785 23.8563 11.4785 24.4581C11.4785 25.0599 11.7176 25.6371 12.1432 26.0627C12.5687 26.4882 13.1459 26.7273 13.7477 26.7273ZM36.4392 26.7273C35.8374 26.7273 35.2602 26.4882 34.8347 26.0627C34.4091 25.6371 34.1701 25.0599 34.1701 24.4581C34.1701 23.8563 34.4091 23.2791 34.8347 22.8536C35.2602 22.428 35.8374 22.189 36.4392 22.189C37.041 22.189 37.6182 22.428 38.0438 22.8536C38.4693 23.2791 38.7084 23.8563 38.7084 24.4581C38.7084 25.0599 38.4693 25.6371 38.0438 26.0627C37.6182 26.4882 37.041 26.7273 36.4392 26.7273Z" stroke="white" stroke-width="1.5" stroke-linecap="round" stroke-linejoin="round"/>
</svg>
