<svg width="74" height="73" viewBox="0 0 74 73" fill="none" xmlns="http://www.w3.org/2000/svg">
<path d="M7.75305 14.9066C7.75305 12.9807 8.51808 11.1338 9.87983 9.77205C11.2416 8.41029 13.0885 7.64526 15.0143 7.64526H36.7982C38.724 7.64526 40.571 8.41029 41.9327 9.77205C43.2945 11.1338 44.0595 12.9807 44.0595 14.9066V18.5372H58.5821C60.5079 18.5372 62.3548 19.3022 63.7166 20.664C65.0784 22.0257 65.8434 23.8727 65.8434 25.7985V62.105C65.8434 63.0679 65.4609 63.9913 64.78 64.6722C64.0991 65.3531 63.1756 65.7356 62.2127 65.7356H11.3837C10.4208 65.7356 9.49732 65.3531 8.81644 64.6722C8.13556 63.9913 7.75305 63.0679 7.75305 62.105V14.9066ZM44.0595 62.105H51.3208V54.8437H44.0595V62.105ZM54.9514 62.105H62.2127V25.7985C62.2127 24.8356 61.8302 23.9121 61.1494 23.2312C60.4685 22.5504 59.545 22.1678 58.5821 22.1678H36.7982C35.8353 22.1678 34.9118 22.5504 34.231 23.2312C33.5501 23.9121 33.1676 24.8356 33.1676 25.7985V62.105H40.4289V54.8437C40.4289 53.8808 40.8114 52.9573 41.4923 52.2764C42.1731 51.5955 43.0966 51.213 44.0595 51.213H51.3208C52.2837 51.213 53.2072 51.5955 53.8881 52.2764C54.5689 52.9573 54.9514 53.8808 54.9514 54.8437V62.105ZM40.4289 14.9066C40.4289 13.9436 40.0464 13.0202 39.3655 12.3393C38.6846 11.6584 37.7611 11.2759 36.7982 11.2759H15.0143C14.0514 11.2759 13.128 11.6584 12.4471 12.3393C11.7662 13.0202 11.3837 13.9436 11.3837 14.9066V62.105H29.5369V25.7985C29.5369 23.8727 30.302 22.0257 31.6637 20.664C33.0255 19.3022 34.8724 18.5372 36.7982 18.5372H40.4289V14.9066ZM44.0595 32.1521C44.0595 32.8743 43.7726 33.5669 43.262 34.0776C42.7513 34.5882 42.0587 34.8751 41.3365 34.8751C40.6143 34.8751 39.9217 34.5882 39.4111 34.0776C38.9004 33.5669 38.6135 32.8743 38.6135 32.1521C38.6135 31.4299 38.9004 30.7373 39.4111 30.2267C39.9217 29.716 40.6143 29.4291 41.3365 29.4291C42.0587 29.4291 42.7513 29.716 43.262 30.2267C43.7726 30.7373 44.0595 31.4299 44.0595 32.1521ZM19.5527 34.8751C20.2748 34.8751 20.9674 34.5882 21.4781 34.0776C21.9888 33.5669 22.2756 32.8743 22.2756 32.1521C22.2756 31.4299 21.9888 30.7373 21.4781 30.2267C20.9674 29.716 20.2748 29.4291 19.5527 29.4291C18.8305 29.4291 18.1379 29.716 17.6272 30.2267C17.1166 30.7373 16.8297 31.4299 16.8297 32.1521C16.8297 32.8743 17.1166 33.5669 17.6272 34.0776C18.1379 34.5882 18.8305 34.8751 19.5527 34.8751ZM22.2756 21.2602C22.2756 21.9824 21.9888 22.675 21.4781 23.1856C20.9674 23.6963 20.2748 23.9832 19.5527 23.9832C18.8305 23.9832 18.1379 23.6963 17.6272 23.1856C17.1166 22.675 16.8297 21.9824 16.8297 21.2602C16.8297 20.538 17.1166 19.8454 17.6272 19.3347C18.1379 18.8241 18.8305 18.5372 19.5527 18.5372C20.2748 18.5372 20.9674 18.8241 21.4781 19.3347C21.9888 19.8454 22.2756 20.538 22.2756 21.2602ZM41.3365 45.767C41.6941 45.767 42.0482 45.6966 42.3786 45.5598C42.7089 45.4229 43.0091 45.2224 43.262 44.9695C43.5148 44.7166 43.7154 44.4165 43.8522 44.0861C43.9891 43.7557 44.0595 43.4016 44.0595 43.0441C44.0595 42.6865 43.9891 42.3324 43.8522 42.002C43.7154 41.6717 43.5148 41.3715 43.262 41.1186C43.0091 40.8658 42.7089 40.6652 42.3786 40.5284C42.0482 40.3915 41.6941 40.3211 41.3365 40.3211C40.6143 40.3211 39.9217 40.608 39.4111 41.1186C38.9004 41.6293 38.6135 42.3219 38.6135 43.0441C38.6135 43.7662 38.9004 44.4588 39.4111 44.9695C39.9217 45.4802 40.6143 45.767 41.3365 45.767ZM22.2756 53.936C22.2756 54.6582 21.9888 55.3508 21.4781 55.8614C20.9674 56.3721 20.2748 56.659 19.5527 56.659C18.8305 56.659 18.1379 56.3721 17.6272 55.8614C17.1166 55.3508 16.8297 54.6582 16.8297 53.936C16.8297 53.2138 17.1166 52.5212 17.6272 52.0106C18.1379 51.4999 18.8305 51.213 19.5527 51.213C20.2748 51.213 20.9674 51.4999 21.4781 52.0106C21.9888 52.5212 22.2756 53.2138 22.2756 53.936ZM19.5527 45.767C19.9102 45.767 20.2643 45.6966 20.5947 45.5598C20.9251 45.4229 21.2252 45.2224 21.4781 44.9695C21.7309 44.7166 21.9315 44.4165 22.0684 44.0861C22.2052 43.7557 22.2756 43.4016 22.2756 43.0441C22.2756 42.6865 22.2052 42.3324 22.0684 42.002C21.9315 41.6717 21.7309 41.3715 21.4781 41.1186C21.2252 40.8658 20.9251 40.6652 20.5947 40.5284C20.2643 40.3915 19.9102 40.3211 19.5527 40.3211C18.8305 40.3211 18.1379 40.608 17.6272 41.1186C17.1166 41.6293 16.8297 42.3219 16.8297 43.0441C16.8297 43.7662 17.1166 44.4588 17.6272 44.9695C18.1379 45.4802 18.8305 45.767 19.5527 45.767ZM56.7668 32.1521C56.7668 32.8743 56.4799 33.5669 55.9692 34.0776C55.4586 34.5882 54.766 34.8751 54.0438 34.8751C53.3216 34.8751 52.629 34.5882 52.1183 34.0776C51.6077 33.5669 51.3208 32.8743 51.3208 32.1521C51.3208 31.4299 51.6077 30.7373 52.1183 30.2267C52.629 29.716 53.3216 29.4291 54.0438 29.4291C54.766 29.4291 55.4586 29.716 55.9692 30.2267C56.4799 30.7373 56.7668 31.4299 56.7668 32.1521ZM54.0438 45.767C54.4014 45.767 54.7555 45.6966 55.0858 45.5598C55.4162 45.4229 55.7164 45.2224 55.9692 44.9695C56.2221 44.7166 56.4227 44.4165 56.5595 44.0861C56.6963 43.7557 56.7668 43.4016 56.7668 43.0441C56.7668 42.6865 56.6963 42.3324 56.5595 42.002C56.4227 41.6717 56.2221 41.3715 55.9692 41.1186C55.7164 40.8658 55.4162 40.6652 55.0858 40.5284C54.7555 40.3915 54.4014 40.3211 54.0438 40.3211C53.3216 40.3211 52.629 40.608 52.1183 41.1186C51.6077 41.6293 51.3208 42.3219 51.3208 43.0441C51.3208 43.7662 51.6077 44.4588 52.1183 44.9695C52.629 45.4802 53.3216 45.767 54.0438 45.767Z" fill="white"/>
</svg>
