<svg width="73" height="73" viewBox="0 0 73 73" fill="none" xmlns="http://www.w3.org/2000/svg">
<path d="M58.9319 15.606C57.1022 11.1068 53.9722 7.25527 49.9419 4.54376C45.9116 1.83226 41.1642 0.383942 36.3065 0.383942C31.4487 0.383942 26.7013 1.83226 22.671 4.54376C18.6407 7.25527 15.5107 11.1068 13.681 15.606C9.61032 17.4109 6.15096 20.3581 3.72255 24.09C1.29414 27.822 0.00102769 32.1783 7.90459e-05 36.6305C-0.0329268 48.8769 10.2748 59.4667 22.5067 59.7967C26.636 59.8935 30.7162 58.8864 34.3261 56.8795V71.0168C34.3261 71.542 34.5348 72.0456 34.9061 72.4169C35.2775 72.7883 35.7812 72.9969 36.3065 72.9969C36.8317 72.9969 37.3354 72.7883 37.7068 72.4169C38.0782 72.0456 38.2868 71.542 38.2868 71.0168V56.8795C41.7192 58.7885 45.5811 59.7924 49.5088 59.7967H50.093C62.3381 59.4667 72.6459 48.8736 72.6128 36.6305C72.6119 32.1783 71.3188 27.822 68.8904 24.09C66.462 20.3581 63.0026 17.4109 58.9319 15.606ZM50.0039 55.8367C45.8053 55.9474 41.6872 54.6716 38.2868 52.2067V37.9208L53.0338 30.5486C53.5039 30.314 53.8615 29.9024 54.028 29.4042C54.1945 28.906 54.1563 28.362 53.9217 27.892C53.6871 27.4221 53.2753 27.0645 52.7771 26.898C52.2788 26.7315 51.7348 26.7698 51.2647 27.0043L38.2868 33.4922V23.4964C38.2868 22.9713 38.0782 22.4676 37.7068 22.0963C37.3354 21.725 36.8317 21.5164 36.3065 21.5164C35.7812 21.5164 35.2775 21.725 34.9061 22.0963C34.5348 22.4676 34.3261 22.9713 34.3261 23.4964V41.4123L21.3482 34.9244C20.8782 34.6898 20.3341 34.6516 19.8359 34.8181C19.3376 34.9846 18.9259 35.3421 18.6913 35.8121C18.4567 36.2821 18.4184 36.826 18.5849 37.3242C18.7514 37.8224 19.109 38.2341 19.5791 38.4686L34.3261 45.8409V52.2067C30.9233 54.6667 26.8069 55.942 22.6091 55.8367C12.473 55.5826 3.93437 46.7946 3.96078 36.6503C3.96057 32.8364 5.10433 29.11 7.24426 25.9527C9.38419 22.7954 12.4219 20.3523 15.965 18.9391C16.2222 18.8351 16.4548 18.6783 16.6475 18.4788C16.8403 18.2792 16.9889 18.0414 17.0839 17.7808C18.5229 13.8398 21.1389 10.4364 24.5773 8.03172C28.0157 5.62703 32.1104 4.33732 36.3065 4.33732C40.5025 4.33732 44.5972 5.62703 48.0356 8.03172C51.4741 10.4364 54.09 13.8398 55.529 17.7808C55.624 18.0414 55.7726 18.2792 55.9654 18.4788C56.1582 18.6783 56.3907 18.8351 56.6479 18.9391C60.1897 20.3513 63.2266 22.7928 65.3665 25.9482C67.5063 29.1036 68.6508 32.8281 68.6522 36.6404C68.6786 46.788 60.14 55.5727 50.0039 55.8367Z" fill="white"/>
</svg>
