<svg width="139" height="36" viewBox="0 0 139 36" fill="none" xmlns="http://www.w3.org/2000/svg">
<path d="M23.84 30.3C19.8 30.3 16.64 27.02 16.64 22.8C16.64 18.6 19.8 15.34 23.84 15.34C27.62 15.34 30.58 17.86 31.08 21.54H27.86C27.52 19.48 25.92 18.06 23.88 18.06C21.42 18.06 19.76 20 19.76 22.8C19.76 25.62 21.42 27.58 23.88 27.58C25.92 27.58 27.5 26.14 27.86 24.08H31.08C30.58 27.8 27.62 30.3 23.84 30.3ZM36.1827 16.84C36.1827 17.78 35.4227 18.48 34.3227 18.48C33.2427 18.48 32.4827 17.78 32.4827 16.84C32.4827 15.86 33.2427 15.16 34.3227 15.16C35.4227 15.16 36.1827 15.86 36.1827 16.84ZM35.7427 30H32.9627V19.32H35.7427V30ZM44.8566 27.3V29.72C44.1766 30.06 43.5366 30.2 42.7166 30.2C40.5166 30.2 39.1366 28.94 39.1366 26.54V21.7H36.9766V19.32H39.1366V16.16H41.8966V19.32H44.9566V21.7H41.8966V25.9C41.8966 27.14 42.4566 27.64 43.4566 27.64C43.9766 27.64 44.4566 27.52 44.8566 27.3ZM56.2741 19.32L51.0741 33.86H48.0541L49.5741 29.88L45.3741 19.32H48.3741L51.0541 26.64L53.4941 19.32H56.2741ZM64.0939 30.3C60.0539 30.3 56.8939 27.02 56.8939 22.8C56.8939 18.6 60.0539 15.34 64.0939 15.34C67.8739 15.34 70.8339 17.86 71.3339 21.54H68.1139C67.7739 19.48 66.1739 18.06 64.1339 18.06C61.6739 18.06 60.0139 20 60.0139 22.8C60.0139 25.62 61.6739 27.58 64.1339 27.58C66.1739 27.58 67.7539 26.14 68.1139 24.08H71.3339C70.8339 27.8 67.8739 30.3 64.0939 30.3ZM77.9366 30.2C74.8366 30.2 72.5166 27.76 72.5166 24.66C72.5166 21.54 74.8366 19.12 77.9366 19.12C81.0366 19.12 83.3566 21.54 83.3566 24.66C83.3566 27.76 81.0366 30.2 77.9366 30.2ZM77.9366 27.74C79.3166 27.74 80.4966 26.64 80.4966 24.66C80.4966 22.68 79.3166 21.6 77.9366 21.6C76.5566 21.6 75.3766 22.68 75.3766 24.66C75.3766 26.64 76.5566 27.74 77.9366 27.74ZM87.9106 24.18V30H85.1306V19.32H87.6906V20.84C88.4706 19.78 89.5706 19.12 90.9706 19.12C93.1106 19.12 94.5906 20.52 94.5906 23.1V30H91.8306V24.04C91.8306 22.46 91.2106 21.58 89.9506 21.58C88.8506 21.58 87.9106 22.46 87.9106 24.18ZM99.7661 24.18V30H96.9861V19.32H99.5461V20.84C100.326 19.78 101.426 19.12 102.826 19.12C104.966 19.12 106.446 20.52 106.446 23.1V30H103.686V24.04C103.686 22.46 103.066 21.58 101.806 21.58C100.706 21.58 99.7661 22.46 99.7661 24.18ZM113.482 30.18C110.282 30.18 108.142 27.96 108.142 24.62C108.142 21.44 110.362 19.12 113.442 19.12C116.822 19.12 119.062 21.86 118.562 25.34H110.982C111.162 27.08 112.002 28.04 113.422 28.04C114.642 28.04 115.462 27.44 115.782 26.38H118.542C117.942 28.8 116.082 30.18 113.482 30.18ZM113.382 21.16C112.082 21.16 111.262 22 111.022 23.58H115.622C115.542 22.1 114.702 21.16 113.382 21.16ZM124.728 30.2C121.648 30.2 119.528 27.92 119.528 24.66C119.528 21.46 121.728 19.12 124.728 19.12C127.508 19.12 129.568 21 129.908 23.88H126.988C126.848 22.46 125.988 21.58 124.728 21.58C123.288 21.58 122.368 22.76 122.368 24.66C122.368 26.58 123.268 27.74 124.728 27.74C126.008 27.74 126.828 26.9 126.988 25.44H129.908C129.588 28.38 127.588 30.2 124.728 30.2ZM138.333 27.3V29.72C137.653 30.06 137.013 30.2 136.193 30.2C133.993 30.2 132.613 28.94 132.613 26.54V21.7H130.453V19.32H132.613V16.16H135.373V19.32H138.433V21.7H135.373V25.9C135.373 27.14 135.933 27.64 136.933 27.64C137.453 27.64 137.933 27.52 138.333 27.3Z" fill="white"/>
<line x1="19.5385" y1="13.1923" x2="14.5385" y2="1.19231" stroke="white"/>
<line x1="13.7905" y1="18.454" x2="0.79047" y2="12.454" stroke="white"/>
<line x1="16.6464" y1="15.3536" x2="6.64645" y2="5.35355" stroke="white"/>
<line x1="13" y1="22.5" x2="4.37114e-08" y2="22.5" stroke="white"/>
<line x1="25.5" y1="13" x2="25.5" y2="2.18557e-08" stroke="white"/>
</svg>
