<svg width="80" height="80" viewBox="0 0 80 80" fill="none" xmlns="http://www.w3.org/2000/svg">
<circle cx="40" cy="40" r="40" fill="white"/>
<path d="M43.6 63.75C33.5 63.75 25.6 55.55 25.6 45C25.6 34.5 33.5 26.35 43.6 26.35C53.05 26.35 60.45 32.65 61.7 41.85H53.65C52.8 36.7 48.8 33.15 43.7 33.15C37.55 33.15 33.4 38 33.4 45C33.4 52.05 37.55 56.95 43.7 56.95C48.8 56.95 52.75 53.35 53.65 48.2H61.7C60.45 57.5 53.05 63.75 43.6 63.75Z" fill="black"/>
<line x1="32.6037" y1="27.3049" x2="22.6037" y2="14.3049" stroke="black"/>
<line x1="25.8915" y1="35.4881" x2="7.89153" y2="31.4881" stroke="black"/>
<line x1="28.7428" y1="31.4287" x2="13.7428" y2="22.4287" stroke="black"/>
<line x1="24.9723" y1="40.4992" x2="6.97226" y2="39.4992" stroke="black"/>
<line x1="37.5419" y1="25.2004" x2="30.5419" y2="9.20041" stroke="black"/>
<line x1="43.5009" y1="24.0294" x2="42.5009" y2="7.02936" stroke="black"/>
</svg>
